<?xml version="1.0" encoding="UTF-8"?>
<svg version="1.1" xmlns="http://www.w3.org/2000/svg" width="501" height="501">
<path d="M0 0 C1.43416676 3.90859421 0.63303755 7.1072695 -0.12582397 11.12901306 C-0.25902121 11.84760815 -0.39221845 12.56620323 -0.52945197 13.30657393 C-0.97824407 15.71629691 -1.439091 18.12355471 -1.89990234 20.53100586 C-2.22397666 22.25731537 -2.54730754 23.98376459 -2.86994934 25.71034241 C-3.74883227 30.401826 -4.63815177 35.09127773 -5.52933455 39.78043818 C-6.45977515 44.68571231 -7.38069894 49.59277224 -8.30264282 54.49964905 C-10.05132188 63.79862446 -11.80866395 73.09594096 -13.56906474 82.39270359 C-15.56871236 92.95534808 -17.55844126 103.51985316 -19.54745173 114.08450496 C-22.47845134 129.65106082 -25.4134189 145.21686551 -28.3573513 160.78098106 C-28.67629911 162.46721618 -28.9951665 164.1534665 -29.31394768 165.83973312 C-29.74908533 168.14121011 -30.18458264 170.44261872 -30.62020874 172.7440033 C-30.86393911 174.03208358 -31.10766949 175.32016386 -31.35878563 176.64727688 C-31.89179805 179.43424353 -32.44352464 182.21762322 -33 185 C1.32 185 35.64 185 71 185 C55.19653538 209.83401583 38.40260807 234.03507645 21.81054688 258.34667969 C18.70564975 262.89684447 15.60295783 267.44851261 12.5 272 C11.2500101 273.83334022 10.00001011 275.66667356 8.75 277.5 C8.13125 278.4075 7.5125 279.315 6.875 280.25 C-43.75 354.5 -43.75 354.5 -45.62402344 357.24853516 C-46.87731903 359.08672377 -48.13057407 360.92494003 -49.38378906 362.76318359 C-52.458039 367.27245575 -55.53293092 371.78128695 -58.609375 376.2890625 C-65.21821062 385.97448643 -71.81372289 395.66877975 -78.3944397 405.37332153 C-79.61426171 407.17166886 -80.83471109 408.96958853 -82.05541992 410.76733398 C-82.45120743 411.3502269 -82.84699493 411.93311981 -83.254776 412.53367615 C-84.04164698 413.69251662 -84.82854247 414.85134045 -85.61546326 416.01014709 C-88.09231944 419.65883302 -90.56136654 423.31270565 -93.02734375 426.96875 C-94.20559438 428.70842463 -95.38397029 430.44801442 -96.5625 432.1875 C-97.09246582 432.97729248 -97.62243164 433.76708496 -98.16845703 434.58081055 C-98.65040527 435.29019775 -99.13235352 435.99958496 -99.62890625 436.73046875 C-100.2487439 437.64928833 -100.2487439 437.64928833 -100.88110352 438.58666992 C-102 440 -102 440 -104 441 C-103.39566345 433.4388529 -102.19219978 426.08013431 -100.76269531 418.63500977 C-100.53649506 417.43821594 -100.3102948 416.24142212 -100.07723999 415.00836182 C-99.46023887 411.748377 -98.83945044 408.48915736 -98.21696568 405.23021817 C-97.55948094 401.78282236 -96.90705843 398.33446863 -96.25408936 394.88621521 C-95.013302 388.33777682 -93.76823263 381.79016057 -92.52150798 375.24285024 C-90.7103301 365.73017209 -88.90585957 356.21622144 -87.10102463 346.70233822 C-86.83027305 345.27518574 -86.55951731 343.84803406 -86.28875732 342.42088318 C-86.15603322 341.72127926 -86.02330911 341.02167535 -85.88656306 340.30087131 C-84.99246891 335.58886433 -84.09659477 330.87719881 -83.20001221 326.16566467 C-82.71821717 323.63202508 -82.23650567 321.0983696 -81.75488281 318.56469727 C-81.52441883 317.35294106 -81.29395485 316.14118486 -81.05650711 314.89270878 C-79.87684977 308.67550177 -78.71203201 302.45590409 -77.56872559 296.23190308 C-77.3394273 294.98428916 -77.11012901 293.73667524 -76.87388229 292.45125484 C-76.43895252 290.07877436 -76.00597367 287.70593512 -75.5752449 285.33268833 C-75.38241299 284.27982608 -75.18958107 283.22696383 -74.99090576 282.14219666 C-74.82296886 281.2181198 -74.65503197 280.29404295 -74.48200607 279.34196377 C-74 277 -74 277 -73 274 C-106 274 -139 274 -173 274 C-171.43289779 270.08224447 -169.98061257 267.1888104 -167.7265625 263.7109375 C-166.74574707 262.18944092 -166.74574707 262.18944092 -165.74511719 260.63720703 C-164.69565918 259.02241455 -164.69565918 259.02241455 -163.625 257.375 C-162.52983602 255.67908954 -161.43624318 253.98217236 -160.34265137 252.2852478 C-159.60853674 251.14643365 -158.8739168 250.00794508 -158.13879395 248.86978149 C-154.9776683 243.97455315 -151.85521404 239.05582418 -148.75 234.125 C-148.27127441 233.36558105 -147.79254883 232.60616211 -147.29931641 231.82373047 C-146.34447993 230.30874916 -145.3898874 228.79361408 -144.43554688 227.27832031 C-141.96040424 223.35008374 -139.47989831 219.42523535 -137 215.5 C-134.02215507 210.78596427 -131.04484163 206.07159761 -128.0703125 201.35546875 C-122.14046007 191.95602182 -116.186155 182.5725154 -110.21582031 173.19873047 C-104.45304413 164.1477072 -98.72362451 155.07581423 -93 146 C-86.09524412 135.05129406 -79.16950614 124.11643589 -72.21582031 113.19873047 C-66.94553363 104.9212118 -61.70266097 96.62659707 -56.46777344 88.32666016 C-53.47901427 83.58898968 -50.48671078 78.85355675 -47.49511719 74.11767578 C-45.01905673 70.19764894 -42.5437665 66.27714081 -40.0703125 62.35546875 C-34.14588921 52.96462758 -28.19946475 43.58814581 -22.23120117 34.22509766 C-19.34875483 29.70074136 -16.47470795 25.17151325 -13.62109375 20.62890625 C-13.08419922 19.77490234 -12.54730469 18.92089844 -11.99414062 18.04101562 C-10.99227831 16.44582958 -9.99213838 14.84955981 -8.99414062 13.25195312 C-6.14398355 8.71521662 -3.15523961 4.33060916 0 0 Z " fill="#FFCC00" transform="translate(302,30)"/>
</svg>
